<svg xmlns="http://www.w3.org/2000/svg" viewBox="0 0 512 512">
  <defs>
    <linearGradient id="gradient" x1="100%" y1="0%" x2="0%" y2="100%">
      <stop offset="0%" stop-color="#fff" stop-opacity="1"/>
      <stop offset="100%" stop-color="#fff" stop-opacity="0.3"/>
    </linearGradient>
    <mask id="mask">
      <rect x="0" y="0" width="100%" height="100%" fill="url(#gradient)"/>
    </mask>
  </defs>
<path fill="#fff" mask="url(#mask)" d="M368 96H144a16 16 0 010-32h224a16 16 0 010 32zM400 144H112a16 16 0 010-32h288a16 16 0 010 32zM419.13 448H92.87A44.92 44.92 0 0148 403.13V204.87A44.92 44.92 0 0192.87 160h326.26A44.92 44.92 0 01464 204.87v198.26A44.92 44.92 0 01419.13 448z"/></svg>